# xmcd
#
# Track frame offsets: 
#        150
#        27772
#        46770
#        98277
#        115950
#        138032
#        156697
#        200492
#        226672
#        249187
#
# Disc length: 4229 seconds
#
# Revision: 9
# Processed by: cddbd v1.5.2PL0 Copyright (c) Steve Scherf et al.
# Submitted via: ExactAudioCopyFreeDBPlugin 1.0
#
DISCID=6f10830a
DTITLE=Stevie Ray Vaughan and Double Trouble - Blues At Sunrise
DYEAR=2000
DGENRE=Blues Rock
TTITLE0=Ain't Gone 'N' Give Up On Love
TTITLE1=Leave My Girl Alone
TTITLE2=Tin Pan Alley [A.K.A. Roughest Place In Town] (Live Featuring 
TTITLE2=Johnny Copeland)
TTITLE3=Chitlins Con Carne
TTITLE4=The Things [That] I Used To Do
TTITLE5=The Sky Is Crying
TTITLE6=Texas Flood [Video Version]
TTITLE7=May I Have A Talk With You
TTITLE8=Dirty Pool
TTITLE9=Blues At Sunrise (Live Featuring Albert King)
EXTD=YEAR: 2000
EXTT0=
EXTT1=
EXTT2=
EXTT3=
EXTT4=
EXTT5=
EXTT6=
EXTT7=
EXTT8=
EXTT9=
PLAYORDER=
